<?xml version="1.0" encoding="utf-8" standalone="no"?>
<!DOCTYPE svg PUBLIC "-//W3C//DTD SVG 1.1//EN"
  "http://www.w3.org/Graphics/SVG/1.1/DTD/svg11.dtd">
<svg xmlns:xlink="http://www.w3.org/1999/xlink" width="508.093pt" height="302.19145pt" viewBox="0 0 508.093 302.19145" xmlns="http://www.w3.org/2000/svg" version="1.1">
 <metadata>
  <rdf:RDF xmlns:dc="http://purl.org/dc/elements/1.1/" xmlns:cc="http://creativecommons.org/ns#" xmlns:rdf="http://www.w3.org/1999/02/22-rdf-syntax-ns#">
   <cc:Work>
    <dc:type rdf:resource="http://purl.org/dc/dcmitype/StillImage"/>
    <dc:date>2026-04-22T17:26:44.794813</dc:date>
    <dc:format>image/svg+xml</dc:format>
    <dc:creator>
     <cc:Agent>
      <dc:title>Matplotlib v3.10.8, https://matplotlib.org/</dc:title>
     </cc:Agent>
    </dc:creator>
   </cc:Work>
  </rdf:RDF>
 </metadata>
 <defs>
  <style type="text/css">*{stroke-linejoin: round; stroke-linecap: butt}</style>
 </defs>
 <g id="figure_1">
  <g id="patch_1">
   <path d="M 0 302.19145 
L 508.093 302.19145 
L 508.093 0 
L 0 0 
z
" style="fill: #ffffff"/>
  </g>
  <g id="axes_1">
   <g id="patch_2">
    <path d="M 49.885 263.6352 
L 500.893 263.6352 
L 500.893 27.7632 
L 49.885 27.7632 
z
" style="fill: #ffffff"/>
   </g>
   <g id="matplotlib.axis_1">
    <g id="xtick_1">
     <g id="line2d_1">
      <path d="M 62.866578 263.6352 
L 62.866578 27.7632 
" clip-path="url(#pdb014d59fe)" style="fill: none; stroke: #d7dce3; stroke-opacity: 0.3; stroke-width: 0.75; stroke-linecap: square"/>
     </g>
     <g id="line2d_2">
      <defs>
       <path id="m821871b9a6" d="M 0 0 
L 0 4.5 
" style="stroke: #111111; stroke-width: 0.85"/>
      </defs>
      <g>
       <use xlink:href="#m821871b9a6" x="62.866578" y="263.6352" style="fill: #111111; stroke: #111111; stroke-width: 0.85"/>
      </g>
     </g>
     <g id="text_1">
      <!-- 0 -->
      <g style="fill: #111111" transform="translate(60.003453 278.473794) scale(0.09 -0.09)">
       <defs>
        <path id="DejaVuSans-30" d="M 2034 4250 
Q 1547 4250 1301 3770 
Q 1056 3291 1056 2328 
Q 1056 1369 1301 889 
Q 1547 409 2034 409 
Q 2525 409 2770 889 
Q 3016 1369 3016 2328 
Q 3016 3291 2770 3770 
Q 2525 4250 2034 4250 
z
M 2034 4750 
Q 2819 4750 3233 4129 
Q 3647 3509 3647 2328 
Q 3647 1150 3233 529 
Q 2819 -91 2034 -91 
Q 1250 -91 836 529 
Q 422 1150 422 2328 
Q 422 3509 836 4129 
Q 1250 4750 2034 4750 
z
" transform="scale(0.015625)"/>
       </defs>
       <use xlink:href="#DejaVuSans-30"/>
      </g>
     </g>
    </g>
    <g id="xtick_2">
     <g id="line2d_3">
      <path d="M 151.417587 263.6352 
L 151.417587 27.7632 
" clip-path="url(#pdb014d59fe)" style="fill: none; stroke: #d7dce3; stroke-opacity: 0.3; stroke-width: 0.75; stroke-linecap: square"/>
     </g>
     <g id="line2d_4">
      <g>
       <use xlink:href="#m821871b9a6" x="151.417587" y="263.6352" style="fill: #111111; stroke: #111111; stroke-width: 0.85"/>
      </g>
     </g>
     <g id="text_2">
      <!-- 500 -->
      <g style="fill: #111111" transform="translate(142.828212 278.473794) scale(0.09 -0.09)">
       <defs>
        <path id="DejaVuSans-35" d="M 691 4666 
L 3169 4666 
L 3169 4134 
L 1269 4134 
L 1269 2991 
Q 1406 3038 1543 3061 
Q 1681 3084 1819 3084 
Q 2600 3084 3056 2656 
Q 3513 2228 3513 1497 
Q 3513 744 3044 326 
Q 2575 -91 1722 -91 
Q 1428 -91 1123 -41 
Q 819 9 494 109 
L 494 744 
Q 775 591 1075 516 
Q 1375 441 1709 441 
Q 2250 441 2565 725 
Q 2881 1009 2881 1497 
Q 2881 1984 2565 2268 
Q 2250 2553 1709 2553 
Q 1456 2553 1204 2497 
Q 953 2441 691 2322 
L 691 4666 
z
" transform="scale(0.015625)"/>
       </defs>
       <use xlink:href="#DejaVuSans-35"/>
       <use xlink:href="#DejaVuSans-30" transform="translate(63.623047 0)"/>
       <use xlink:href="#DejaVuSans-30" transform="translate(127.246094 0)"/>
      </g>
     </g>
    </g>
    <g id="xtick_3">
     <g id="line2d_5">
      <path d="M 239.968596 263.6352 
L 239.968596 27.7632 
" clip-path="url(#pdb014d59fe)" style="fill: none; stroke: #d7dce3; stroke-opacity: 0.3; stroke-width: 0.75; stroke-linecap: square"/>
     </g>
     <g id="line2d_6">
      <g>
       <use xlink:href="#m821871b9a6" x="239.968596" y="263.6352" style="fill: #111111; stroke: #111111; stroke-width: 0.85"/>
      </g>
     </g>
     <g id="text_3">
      <!-- 1000 -->
      <g style="fill: #111111" transform="translate(228.516096 278.473794) scale(0.09 -0.09)">
       <defs>
        <path id="DejaVuSans-31" d="M 794 531 
L 1825 531 
L 1825 4091 
L 703 3866 
L 703 4441 
L 1819 4666 
L 2450 4666 
L 2450 531 
L 3481 531 
L 3481 0 
L 794 0 
L 794 531 
z
" transform="scale(0.015625)"/>
       </defs>
       <use xlink:href="#DejaVuSans-31"/>
       <use xlink:href="#DejaVuSans-30" transform="translate(63.623047 0)"/>
       <use xlink:href="#DejaVuSans-30" transform="translate(127.246094 0)"/>
       <use xlink:href="#DejaVuSans-30" transform="translate(190.869141 0)"/>
      </g>
     </g>
    </g>
    <g id="xtick_4">
     <g id="line2d_7">
      <path d="M 328.519606 263.6352 
L 328.519606 27.7632 
" clip-path="url(#pdb014d59fe)" style="fill: none; stroke: #d7dce3; stroke-opacity: 0.3; stroke-width: 0.75; stroke-linecap: square"/>
     </g>
     <g id="line2d_8">
      <g>
       <use xlink:href="#m821871b9a6" x="328.519606" y="263.6352" style="fill: #111111; stroke: #111111; stroke-width: 0.85"/>
      </g>
     </g>
     <g id="text_4">
      <!-- 1500 -->
      <g style="fill: #111111" transform="translate(317.067106 278.473794) scale(0.09 -0.09)">
       <use xlink:href="#DejaVuSans-31"/>
       <use xlink:href="#DejaVuSans-35" transform="translate(63.623047 0)"/>
       <use xlink:href="#DejaVuSans-30" transform="translate(127.246094 0)"/>
       <use xlink:href="#DejaVuSans-30" transform="translate(190.869141 0)"/>
      </g>
     </g>
    </g>
    <g id="xtick_5">
     <g id="line2d_9">
      <path d="M 417.070615 263.6352 
L 417.070615 27.7632 
" clip-path="url(#pdb014d59fe)" style="fill: none; stroke: #d7dce3; stroke-opacity: 0.3; stroke-width: 0.75; stroke-linecap: square"/>
     </g>
     <g id="line2d_10">
      <g>
       <use xlink:href="#m821871b9a6" x="417.070615" y="263.6352" style="fill: #111111; stroke: #111111; stroke-width: 0.85"/>
      </g>
     </g>
     <g id="text_5">
      <!-- 2000 -->
      <g style="fill: #111111" transform="translate(405.618115 278.473794) scale(0.09 -0.09)">
       <defs>
        <path id="DejaVuSans-32" d="M 1228 531 
L 3431 531 
L 3431 0 
L 469 0 
L 469 531 
Q 828 903 1448 1529 
Q 2069 2156 2228 2338 
Q 2531 2678 2651 2914 
Q 2772 3150 2772 3378 
Q 2772 3750 2511 3984 
Q 2250 4219 1831 4219 
Q 1534 4219 1204 4116 
Q 875 4013 500 3803 
L 500 4441 
Q 881 4594 1212 4672 
Q 1544 4750 1819 4750 
Q 2544 4750 2975 4387 
Q 3406 4025 3406 3419 
Q 3406 3131 3298 2873 
Q 3191 2616 2906 2266 
Q 2828 2175 2409 1742 
Q 1991 1309 1228 531 
z
" transform="scale(0.015625)"/>
       </defs>
       <use xlink:href="#DejaVuSans-32"/>
       <use xlink:href="#DejaVuSans-30" transform="translate(63.623047 0)"/>
       <use xlink:href="#DejaVuSans-30" transform="translate(127.246094 0)"/>
       <use xlink:href="#DejaVuSans-30" transform="translate(190.869141 0)"/>
      </g>
     </g>
    </g>
    <g id="text_6">
     <!-- Step -->
     <g style="fill: #111111" transform="translate(262.865328 292.703794) scale(0.11 -0.11)">
      <defs>
       <path id="DejaVuSans-53" d="M 3425 4513 
L 3425 3897 
Q 3066 4069 2747 4153 
Q 2428 4238 2131 4238 
Q 1616 4238 1336 4038 
Q 1056 3838 1056 3469 
Q 1056 3159 1242 3001 
Q 1428 2844 1947 2747 
L 2328 2669 
Q 3034 2534 3370 2195 
Q 3706 1856 3706 1288 
Q 3706 609 3251 259 
Q 2797 -91 1919 -91 
Q 1588 -91 1214 -16 
Q 841 59 441 206 
L 441 856 
Q 825 641 1194 531 
Q 1563 422 1919 422 
Q 2459 422 2753 634 
Q 3047 847 3047 1241 
Q 3047 1584 2836 1778 
Q 2625 1972 2144 2069 
L 1759 2144 
Q 1053 2284 737 2584 
Q 422 2884 422 3419 
Q 422 4038 858 4394 
Q 1294 4750 2059 4750 
Q 2388 4750 2728 4690 
Q 3069 4631 3425 4513 
z
" transform="scale(0.015625)"/>
       <path id="DejaVuSans-74" d="M 1172 4494 
L 1172 3500 
L 2356 3500 
L 2356 3053 
L 1172 3053 
L 1172 1153 
Q 1172 725 1289 603 
Q 1406 481 1766 481 
L 2356 481 
L 2356 0 
L 1766 0 
Q 1100 0 847 248 
Q 594 497 594 1153 
L 594 3053 
L 172 3053 
L 172 3500 
L 594 3500 
L 594 4494 
L 1172 4494 
z
" transform="scale(0.015625)"/>
       <path id="DejaVuSans-65" d="M 3597 1894 
L 3597 1613 
L 953 1613 
Q 991 1019 1311 708 
Q 1631 397 2203 397 
Q 2534 397 2845 478 
Q 3156 559 3463 722 
L 3463 178 
Q 3153 47 2828 -22 
Q 2503 -91 2169 -91 
Q 1331 -91 842 396 
Q 353 884 353 1716 
Q 353 2575 817 3079 
Q 1281 3584 2069 3584 
Q 2775 3584 3186 3129 
Q 3597 2675 3597 1894 
z
M 3022 2063 
Q 3016 2534 2758 2815 
Q 2500 3097 2075 3097 
Q 1594 3097 1305 2825 
Q 1016 2553 972 2059 
L 3022 2063 
z
" transform="scale(0.015625)"/>
       <path id="DejaVuSans-70" d="M 1159 525 
L 1159 -1331 
L 581 -1331 
L 581 3500 
L 1159 3500 
L 1159 2969 
Q 1341 3281 1617 3432 
Q 1894 3584 2278 3584 
Q 2916 3584 3314 3078 
Q 3713 2572 3713 1747 
Q 3713 922 3314 415 
Q 2916 -91 2278 -91 
Q 1894 -91 1617 61 
Q 1341 213 1159 525 
z
M 3116 1747 
Q 3116 2381 2855 2742 
Q 2594 3103 2138 3103 
Q 1681 3103 1420 2742 
Q 1159 2381 1159 1747 
Q 1159 1113 1420 752 
Q 1681 391 2138 391 
Q 2594 391 2855 752 
Q 3116 1113 3116 1747 
z
" transform="scale(0.015625)"/>
      </defs>
      <use xlink:href="#DejaVuSans-53"/>
      <use xlink:href="#DejaVuSans-74" transform="translate(63.476562 0)"/>
      <use xlink:href="#DejaVuSans-65" transform="translate(102.685547 0)"/>
      <use xlink:href="#DejaVuSans-70" transform="translate(164.208984 0)"/>
     </g>
    </g>
   </g>
   <g id="matplotlib.axis_2">
    <g id="ytick_1">
     <g id="line2d_11">
      <path d="M 49.885 221.950924 
L 500.893 221.950924 
" clip-path="url(#pdb014d59fe)" style="fill: none; stroke: #d7dce3; stroke-opacity: 0.3; stroke-width: 0.75; stroke-linecap: square"/>
     </g>
     <g id="line2d_12">
      <defs>
       <path id="mde9a9efe97" d="M 0 0 
L -4.5 0 
" style="stroke: #111111; stroke-width: 0.85"/>
      </defs>
      <g>
       <use xlink:href="#mde9a9efe97" x="49.885" y="221.950924" style="fill: #111111; stroke: #111111; stroke-width: 0.85"/>
      </g>
     </g>
     <g id="text_7">
      <!-- 0.56 -->
      <g style="fill: #111111" transform="translate(21.845938 225.370221) scale(0.09 -0.09)">
       <defs>
        <path id="DejaVuSans-2e" d="M 684 794 
L 1344 794 
L 1344 0 
L 684 0 
L 684 794 
z
" transform="scale(0.015625)"/>
        <path id="DejaVuSans-36" d="M 2113 2584 
Q 1688 2584 1439 2293 
Q 1191 2003 1191 1497 
Q 1191 994 1439 701 
Q 1688 409 2113 409 
Q 2538 409 2786 701 
Q 3034 994 3034 1497 
Q 3034 2003 2786 2293 
Q 2538 2584 2113 2584 
z
M 3366 4563 
L 3366 3988 
Q 3128 4100 2886 4159 
Q 2644 4219 2406 4219 
Q 1781 4219 1451 3797 
Q 1122 3375 1075 2522 
Q 1259 2794 1537 2939 
Q 1816 3084 2150 3084 
Q 2853 3084 3261 2657 
Q 3669 2231 3669 1497 
Q 3669 778 3244 343 
Q 2819 -91 2113 -91 
Q 1303 -91 875 529 
Q 447 1150 447 2328 
Q 447 3434 972 4092 
Q 1497 4750 2381 4750 
Q 2619 4750 2861 4703 
Q 3103 4656 3366 4563 
z
" transform="scale(0.015625)"/>
       </defs>
       <use xlink:href="#DejaVuSans-30"/>
       <use xlink:href="#DejaVuSans-2e" transform="translate(63.623047 0)"/>
       <use xlink:href="#DejaVuSans-35" transform="translate(95.410156 0)"/>
       <use xlink:href="#DejaVuSans-36" transform="translate(159.033203 0)"/>
      </g>
     </g>
    </g>
    <g id="ytick_2">
     <g id="line2d_13">
      <path d="M 49.885 171.116441 
L 500.893 171.116441 
" clip-path="url(#pdb014d59fe)" style="fill: none; stroke: #d7dce3; stroke-opacity: 0.3; stroke-width: 0.75; stroke-linecap: square"/>
     </g>
     <g id="line2d_14">
      <g>
       <use xlink:href="#mde9a9efe97" x="49.885" y="171.116441" style="fill: #111111; stroke: #111111; stroke-width: 0.85"/>
      </g>
     </g>
     <g id="text_8">
      <!-- 0.64 -->
      <g style="fill: #111111" transform="translate(21.845938 174.535738) scale(0.09 -0.09)">
       <defs>
        <path id="DejaVuSans-34" d="M 2419 4116 
L 825 1625 
L 2419 1625 
L 2419 4116 
z
M 2253 4666 
L 3047 4666 
L 3047 1625 
L 3713 1625 
L 3713 1100 
L 3047 1100 
L 3047 0 
L 2419 0 
L 2419 1100 
L 313 1100 
L 313 1709 
L 2253 4666 
z
" transform="scale(0.015625)"/>
       </defs>
       <use xlink:href="#DejaVuSans-30"/>
       <use xlink:href="#DejaVuSans-2e" transform="translate(63.623047 0)"/>
       <use xlink:href="#DejaVuSans-36" transform="translate(95.410156 0)"/>
       <use xlink:href="#DejaVuSans-34" transform="translate(159.033203 0)"/>
      </g>
     </g>
    </g>
    <g id="ytick_3">
     <g id="line2d_15">
      <path d="M 49.885 120.281959 
L 500.893 120.281959 
" clip-path="url(#pdb014d59fe)" style="fill: none; stroke: #d7dce3; stroke-opacity: 0.3; stroke-width: 0.75; stroke-linecap: square"/>
     </g>
     <g id="line2d_16">
      <g>
       <use xlink:href="#mde9a9efe97" x="49.885" y="120.281959" style="fill: #111111; stroke: #111111; stroke-width: 0.85"/>
      </g>
     </g>
     <g id="text_9">
      <!-- 0.72 -->
      <g style="fill: #111111" transform="translate(21.845938 123.701255) scale(0.09 -0.09)">
       <defs>
        <path id="DejaVuSans-37" d="M 525 4666 
L 3525 4666 
L 3525 4397 
L 1831 0 
L 1172 0 
L 2766 4134 
L 525 4134 
L 525 4666 
z
" transform="scale(0.015625)"/>
       </defs>
       <use xlink:href="#DejaVuSans-30"/>
       <use xlink:href="#DejaVuSans-2e" transform="translate(63.623047 0)"/>
       <use xlink:href="#DejaVuSans-37" transform="translate(95.410156 0)"/>
       <use xlink:href="#DejaVuSans-32" transform="translate(159.033203 0)"/>
      </g>
     </g>
    </g>
    <g id="ytick_4">
     <g id="line2d_17">
      <path d="M 49.885 69.447476 
L 500.893 69.447476 
" clip-path="url(#pdb014d59fe)" style="fill: none; stroke: #d7dce3; stroke-opacity: 0.3; stroke-width: 0.75; stroke-linecap: square"/>
     </g>
     <g id="line2d_18">
      <g>
       <use xlink:href="#mde9a9efe97" x="49.885" y="69.447476" style="fill: #111111; stroke: #111111; stroke-width: 0.85"/>
      </g>
     </g>
     <g id="text_10">
      <!-- 0.80 -->
      <g style="fill: #111111" transform="translate(21.845938 72.866773) scale(0.09 -0.09)">
       <defs>
        <path id="DejaVuSans-38" d="M 2034 2216 
Q 1584 2216 1326 1975 
Q 1069 1734 1069 1313 
Q 1069 891 1326 650 
Q 1584 409 2034 409 
Q 2484 409 2743 651 
Q 3003 894 3003 1313 
Q 3003 1734 2745 1975 
Q 2488 2216 2034 2216 
z
M 1403 2484 
Q 997 2584 770 2862 
Q 544 3141 544 3541 
Q 544 4100 942 4425 
Q 1341 4750 2034 4750 
Q 2731 4750 3128 4425 
Q 3525 4100 3525 3541 
Q 3525 3141 3298 2862 
Q 3072 2584 2669 2484 
Q 3125 2378 3379 2068 
Q 3634 1759 3634 1313 
Q 3634 634 3220 271 
Q 2806 -91 2034 -91 
Q 1263 -91 848 271 
Q 434 634 434 1313 
Q 434 1759 690 2068 
Q 947 2378 1403 2484 
z
M 1172 3481 
Q 1172 3119 1398 2916 
Q 1625 2713 2034 2713 
Q 2441 2713 2670 2916 
Q 2900 3119 2900 3481 
Q 2900 3844 2670 4047 
Q 2441 4250 2034 4250 
Q 1625 4250 1398 4047 
Q 1172 3844 1172 3481 
z
" transform="scale(0.015625)"/>
       </defs>
       <use xlink:href="#DejaVuSans-30"/>
       <use xlink:href="#DejaVuSans-2e" transform="translate(63.623047 0)"/>
       <use xlink:href="#DejaVuSans-38" transform="translate(95.410156 0)"/>
       <use xlink:href="#DejaVuSans-30" transform="translate(159.033203 0)"/>
      </g>
     </g>
    </g>
    <g id="text_11">
     <!-- Eval Accuracy -->
     <g style="fill: #111111" transform="translate(15.558281 184.187169) rotate(-90) scale(0.11 -0.11)">
      <defs>
       <path id="DejaVuSans-45" d="M 628 4666 
L 3578 4666 
L 3578 4134 
L 1259 4134 
L 1259 2753 
L 3481 2753 
L 3481 2222 
L 1259 2222 
L 1259 531 
L 3634 531 
L 3634 0 
L 628 0 
L 628 4666 
z
" transform="scale(0.015625)"/>
       <path id="DejaVuSans-76" d="M 191 3500 
L 800 3500 
L 1894 563 
L 2988 3500 
L 3597 3500 
L 2284 0 
L 1503 0 
L 191 3500 
z
" transform="scale(0.015625)"/>
       <path id="DejaVuSans-61" d="M 2194 1759 
Q 1497 1759 1228 1600 
Q 959 1441 959 1056 
Q 959 750 1161 570 
Q 1363 391 1709 391 
Q 2188 391 2477 730 
Q 2766 1069 2766 1631 
L 2766 1759 
L 2194 1759 
z
M 3341 1997 
L 3341 0 
L 2766 0 
L 2766 531 
Q 2569 213 2275 61 
Q 1981 -91 1556 -91 
Q 1019 -91 701 211 
Q 384 513 384 1019 
Q 384 1609 779 1909 
Q 1175 2209 1959 2209 
L 2766 2209 
L 2766 2266 
Q 2766 2663 2505 2880 
Q 2244 3097 1772 3097 
Q 1472 3097 1187 3025 
Q 903 2953 641 2809 
L 641 3341 
Q 956 3463 1253 3523 
Q 1550 3584 1831 3584 
Q 2591 3584 2966 3190 
Q 3341 2797 3341 1997 
z
" transform="scale(0.015625)"/>
       <path id="DejaVuSans-6c" d="M 603 4863 
L 1178 4863 
L 1178 0 
L 603 0 
L 603 4863 
z
" transform="scale(0.015625)"/>
       <path id="DejaVuSans-20" transform="scale(0.015625)"/>
       <path id="DejaVuSans-41" d="M 2188 4044 
L 1331 1722 
L 3047 1722 
L 2188 4044 
z
M 1831 4666 
L 2547 4666 
L 4325 0 
L 3669 0 
L 3244 1197 
L 1141 1197 
L 716 0 
L 50 0 
L 1831 4666 
z
" transform="scale(0.015625)"/>
       <path id="DejaVuSans-63" d="M 3122 3366 
L 3122 2828 
Q 2878 2963 2633 3030 
Q 2388 3097 2138 3097 
Q 1578 3097 1268 2742 
Q 959 2388 959 1747 
Q 959 1106 1268 751 
Q 1578 397 2138 397 
Q 2388 397 2633 464 
Q 2878 531 3122 666 
L 3122 134 
Q 2881 22 2623 -34 
Q 2366 -91 2075 -91 
Q 1284 -91 818 406 
Q 353 903 353 1747 
Q 353 2603 823 3093 
Q 1294 3584 2113 3584 
Q 2378 3584 2631 3529 
Q 2884 3475 3122 3366 
z
" transform="scale(0.015625)"/>
       <path id="DejaVuSans-75" d="M 544 1381 
L 544 3500 
L 1119 3500 
L 1119 1403 
Q 1119 906 1312 657 
Q 1506 409 1894 409 
Q 2359 409 2629 706 
Q 2900 1003 2900 1516 
L 2900 3500 
L 3475 3500 
L 3475 0 
L 2900 0 
L 2900 538 
Q 2691 219 2414 64 
Q 2138 -91 1772 -91 
Q 1169 -91 856 284 
Q 544 659 544 1381 
z
M 1991 3584 
L 1991 3584 
z
" transform="scale(0.015625)"/>
       <path id="DejaVuSans-72" d="M 2631 2963 
Q 2534 3019 2420 3045 
Q 2306 3072 2169 3072 
Q 1681 3072 1420 2755 
Q 1159 2438 1159 1844 
L 1159 0 
L 581 0 
L 581 3500 
L 1159 3500 
L 1159 2956 
Q 1341 3275 1631 3429 
Q 1922 3584 2338 3584 
Q 2397 3584 2469 3576 
Q 2541 3569 2628 3553 
L 2631 2963 
z
" transform="scale(0.015625)"/>
       <path id="DejaVuSans-79" d="M 2059 -325 
Q 1816 -950 1584 -1140 
Q 1353 -1331 966 -1331 
L 506 -1331 
L 506 -850 
L 844 -850 
Q 1081 -850 1212 -737 
Q 1344 -625 1503 -206 
L 1606 56 
L 191 3500 
L 800 3500 
L 1894 763 
L 2988 3500 
L 3597 3500 
L 2059 -325 
z
" transform="scale(0.015625)"/>
      </defs>
      <use xlink:href="#DejaVuSans-45"/>
      <use xlink:href="#DejaVuSans-76" transform="translate(63.183594 0)"/>
      <use xlink:href="#DejaVuSans-61" transform="translate(122.363281 0)"/>
      <use xlink:href="#DejaVuSans-6c" transform="translate(183.642578 0)"/>
      <use xlink:href="#DejaVuSans-20" transform="translate(211.425781 0)"/>
      <use xlink:href="#DejaVuSans-41" transform="translate(243.212891 0)"/>
      <use xlink:href="#DejaVuSans-63" transform="translate(309.871094 0)"/>
      <use xlink:href="#DejaVuSans-63" transform="translate(364.851562 0)"/>
      <use xlink:href="#DejaVuSans-75" transform="translate(419.832031 0)"/>
      <use xlink:href="#DejaVuSans-72" transform="translate(483.210938 0)"/>
      <use xlink:href="#DejaVuSans-61" transform="translate(524.324219 0)"/>
      <use xlink:href="#DejaVuSans-63" transform="translate(585.603516 0)"/>
      <use xlink:href="#DejaVuSans-79" transform="translate(640.583984 0)"/>
     </g>
    </g>
   </g>
   <g id="line2d_19">
    <path d="M 64.637598 126.636269 
L 66.408618 88.510407 
L 68.179638 113.927648 
L 69.950659 82.156097 
L 71.721679 107.573338 
L 73.492699 69.447476 
L 75.263719 94.864717 
L 78.80576 94.864717 
L 80.57678 82.156097 
L 84.11882 69.447476 
L 87.660861 82.156097 
L 89.431881 82.156097 
L 91.202901 101.219028 
L 92.973921 82.156097 
L 94.744941 82.156097 
L 96.515961 75.801786 
L 98.286982 75.801786 
L 100.058002 63.093166 
L 101.829022 75.801786 
L 103.600042 69.447476 
L 105.371062 75.801786 
L 107.142083 88.510407 
L 108.913103 50.384545 
L 112.455143 63.093166 
L 114.226163 56.738855 
L 115.997183 69.447476 
L 117.768204 44.030234 
L 121.310244 69.447476 
L 123.081264 50.384545 
L 124.852284 56.738855 
L 126.623305 88.510407 
L 128.394325 56.738855 
L 131.936365 94.864717 
L 133.707385 69.447476 
L 135.478405 69.447476 
L 139.020446 56.738855 
L 140.791466 152.05351 
L 144.333506 88.510407 
L 146.104527 101.219028 
L 147.875547 82.156097 
L 149.646567 113.927648 
L 151.417587 82.156097 
L 153.188607 75.801786 
L 154.959628 82.156097 
L 158.501668 82.156097 
L 160.272688 94.864717 
L 162.043708 113.927648 
L 163.814728 88.510407 
L 165.585749 107.573338 
L 167.356769 107.573338 
L 169.127789 94.864717 
L 170.898809 107.573338 
L 172.669829 69.447476 
L 174.44085 75.801786 
L 176.21187 75.801786 
L 177.98289 82.156097 
L 179.75391 228.305234 
L 181.52493 113.927648 
L 183.29595 139.34489 
L 185.066971 82.156097 
L 186.837991 107.573338 
L 188.609011 101.219028 
L 190.380031 88.510407 
L 192.151051 82.156097 
L 193.922072 113.927648 
L 195.693092 247.368166 
L 197.464112 120.281959 
L 199.235132 101.219028 
L 201.006152 107.573338 
L 202.777172 94.864717 
L 204.548193 88.510407 
L 206.319213 113.927648 
L 208.090233 88.510407 
L 209.861253 94.864717 
L 211.632273 63.093166 
L 213.403294 75.801786 
L 216.945334 75.801786 
L 218.716354 82.156097 
L 220.487374 145.6992 
L 222.258394 139.34489 
L 224.029415 82.156097 
L 225.800435 107.573338 
L 227.571455 145.6992 
L 229.342475 132.990579 
L 231.113495 158.407821 
L 232.884516 202.887993 
L 234.655536 88.510407 
L 236.426556 75.801786 
L 238.197576 82.156097 
L 239.968596 82.156097 
L 241.739617 75.801786 
L 243.510637 82.156097 
L 245.281657 63.093166 
L 248.823697 75.801786 
L 250.594717 75.801786 
L 252.365738 63.093166 
L 254.136758 82.156097 
L 255.907778 88.510407 
L 257.678798 44.030234 
L 259.449818 75.801786 
L 262.991859 63.093166 
L 264.762879 158.407821 
L 266.533899 101.219028 
L 268.304919 164.762131 
L 270.075939 94.864717 
L 271.84696 82.156097 
L 275.389 94.864717 
L 277.16002 113.927648 
L 278.93104 82.156097 
L 280.702061 107.573338 
L 282.473081 56.738855 
L 284.244101 88.510407 
L 286.015121 88.510407 
L 287.786141 107.573338 
L 289.557161 75.801786 
L 291.328182 69.447476 
L 293.099202 120.281959 
L 294.870222 82.156097 
L 296.641242 82.156097 
L 298.412262 75.801786 
L 300.183283 82.156097 
L 301.954303 94.864717 
L 303.725323 75.801786 
L 305.496343 63.093166 
L 307.267363 107.573338 
L 309.038383 75.801786 
L 310.809404 82.156097 
L 312.580424 82.156097 
L 314.351444 94.864717 
L 316.122464 75.801786 
L 317.893484 75.801786 
L 319.664505 101.219028 
L 321.435525 75.801786 
L 323.206545 94.864717 
L 324.977565 75.801786 
L 326.748585 88.510407 
L 328.519606 88.510407 
L 330.290626 75.801786 
L 333.832666 63.093166 
L 335.603686 94.864717 
L 337.374706 63.093166 
L 339.145727 75.801786 
L 340.916747 75.801786 
L 342.687767 82.156097 
L 344.458787 82.156097 
L 346.229807 69.447476 
L 348.000828 82.156097 
L 349.771848 69.447476 
L 351.542868 63.093166 
L 353.313888 69.447476 
L 355.084908 88.510407 
L 356.855928 82.156097 
L 358.626949 69.447476 
L 360.397969 82.156097 
L 362.168989 75.801786 
L 367.48205 75.801786 
L 369.25307 82.156097 
L 371.02409 75.801786 
L 372.79511 56.738855 
L 374.56613 56.738855 
L 376.33715 63.093166 
L 378.108171 56.738855 
L 379.879191 63.093166 
L 381.650211 63.093166 
L 383.421231 56.738855 
L 385.192251 69.447476 
L 386.963272 56.738855 
L 390.505312 69.447476 
L 394.047352 69.447476 
L 395.818372 82.156097 
L 397.589393 69.447476 
L 399.360413 69.447476 
L 401.131433 82.156097 
L 402.902453 69.447476 
L 404.673473 82.156097 
L 406.444494 88.510407 
L 408.215514 69.447476 
L 409.986534 69.447476 
L 411.757554 82.156097 
L 413.528574 63.093166 
L 415.299595 75.801786 
L 417.070615 82.156097 
L 418.841635 75.801786 
L 420.612655 82.156097 
L 422.383675 75.801786 
L 425.925716 75.801786 
L 427.696736 63.093166 
L 433.009796 82.156097 
L 434.780817 75.801786 
L 436.551837 75.801786 
L 438.322857 82.156097 
L 440.093877 82.156097 
L 441.864897 75.801786 
L 443.635917 82.156097 
L 445.406938 75.801786 
L 447.177958 82.156097 
L 448.948978 75.801786 
L 450.719998 82.156097 
L 452.491018 82.156097 
L 454.262039 75.801786 
L 456.033059 63.093166 
L 457.804079 164.762131 
L 459.575099 126.636269 
L 461.346119 107.573338 
L 463.117139 113.927648 
L 466.65918 101.219028 
L 468.4302 113.927648 
L 470.20122 107.573338 
L 471.97224 107.573338 
L 473.743261 126.636269 
L 475.514281 158.407821 
L 477.285301 126.636269 
L 479.056321 113.927648 
L 482.598362 101.219028 
L 484.369382 113.927648 
L 486.140402 113.927648 
L 486.140402 113.927648 
" clip-path="url(#pdb014d59fe)" style="fill: none; stroke: #0b24fb; stroke-opacity: 0.98; stroke-width: 2.1; stroke-linecap: round"/>
   </g>
   <g id="patch_3">
    <path d="M 49.885 263.6352 
L 49.885 27.7632 
" style="fill: none; stroke: #444444; stroke-width: 0.8; stroke-linejoin: miter; stroke-linecap: square"/>
   </g>
   <g id="patch_4">
    <path d="M 49.885 263.6352 
L 500.893 263.6352 
" style="fill: none; stroke: #444444; stroke-width: 0.8; stroke-linejoin: miter; stroke-linecap: square"/>
   </g>
   <g id="PathCollection_1">
    <defs>
     <path id="m3183d2cb49" d="M 0 2.738613 
C 0.726289 2.738613 1.422928 2.450055 1.936492 1.936492 
C 2.450055 1.422928 2.738613 0.726289 2.738613 0 
C 2.738613 -0.726289 2.450055 -1.422928 1.936492 -1.936492 
C 1.422928 -2.450055 0.726289 -2.738613 0 -2.738613 
C -0.726289 -2.738613 -1.422928 -2.450055 -1.936492 -1.936492 
C -2.450055 -1.422928 -2.738613 -0.726289 -2.738613 0 
C -2.738613 0.726289 -2.450055 1.422928 -1.936492 1.936492 
C -1.422928 2.450055 -0.726289 2.738613 0 2.738613 
z
" style="stroke: #0b24fb; stroke-opacity: 0.95; stroke-width: 1.1"/>
    </defs>
    <g clip-path="url(#pdb014d59fe)">
     <use xlink:href="#m3183d2cb49" x="64.637598" y="126.636269" style="fill: #ffffff; fill-opacity: 0.95; stroke: #0b24fb; stroke-opacity: 0.95; stroke-width: 1.1"/>
     <use xlink:href="#m3183d2cb49" x="124.852284" y="56.738855" style="fill: #ffffff; fill-opacity: 0.95; stroke: #0b24fb; stroke-opacity: 0.95; stroke-width: 1.1"/>
     <use xlink:href="#m3183d2cb49" x="185.066971" y="82.156097" style="fill: #ffffff; fill-opacity: 0.95; stroke: #0b24fb; stroke-opacity: 0.95; stroke-width: 1.1"/>
     <use xlink:href="#m3183d2cb49" x="245.281657" y="63.093166" style="fill: #ffffff; fill-opacity: 0.95; stroke: #0b24fb; stroke-opacity: 0.95; stroke-width: 1.1"/>
     <use xlink:href="#m3183d2cb49" x="305.496343" y="63.093166" style="fill: #ffffff; fill-opacity: 0.95; stroke: #0b24fb; stroke-opacity: 0.95; stroke-width: 1.1"/>
     <use xlink:href="#m3183d2cb49" x="365.711029" y="75.801786" style="fill: #ffffff; fill-opacity: 0.95; stroke: #0b24fb; stroke-opacity: 0.95; stroke-width: 1.1"/>
     <use xlink:href="#m3183d2cb49" x="425.925716" y="75.801786" style="fill: #ffffff; fill-opacity: 0.95; stroke: #0b24fb; stroke-opacity: 0.95; stroke-width: 1.1"/>
     <use xlink:href="#m3183d2cb49" x="486.140402" y="113.927648" style="fill: #ffffff; fill-opacity: 0.95; stroke: #0b24fb; stroke-opacity: 0.95; stroke-width: 1.1"/>
    </g>
   </g>
  </g>
  <g id="text_12">
   <!-- FinGPT SFT Curves -->
   <g style="fill: #111111" transform="translate(191.526703 17.077969) scale(0.13 -0.13)">
    <defs>
     <path id="DejaVuSans-46" d="M 628 4666 
L 3309 4666 
L 3309 4134 
L 1259 4134 
L 1259 2759 
L 3109 2759 
L 3109 2228 
L 1259 2228 
L 1259 0 
L 628 0 
L 628 4666 
z
" transform="scale(0.015625)"/>
     <path id="DejaVuSans-69" d="M 603 3500 
L 1178 3500 
L 1178 0 
L 603 0 
L 603 3500 
z
M 603 4863 
L 1178 4863 
L 1178 4134 
L 603 4134 
L 603 4863 
z
" transform="scale(0.015625)"/>
     <path id="DejaVuSans-6e" d="M 3513 2113 
L 3513 0 
L 2938 0 
L 2938 2094 
Q 2938 2591 2744 2837 
Q 2550 3084 2163 3084 
Q 1697 3084 1428 2787 
Q 1159 2491 1159 1978 
L 1159 0 
L 581 0 
L 581 3500 
L 1159 3500 
L 1159 2956 
Q 1366 3272 1645 3428 
Q 1925 3584 2291 3584 
Q 2894 3584 3203 3211 
Q 3513 2838 3513 2113 
z
" transform="scale(0.015625)"/>
     <path id="DejaVuSans-47" d="M 3809 666 
L 3809 1919 
L 2778 1919 
L 2778 2438 
L 4434 2438 
L 4434 434 
Q 4069 175 3628 42 
Q 3188 -91 2688 -91 
Q 1594 -91 976 548 
Q 359 1188 359 2328 
Q 359 3472 976 4111 
Q 1594 4750 2688 4750 
Q 3144 4750 3555 4637 
Q 3966 4525 4313 4306 
L 4313 3634 
Q 3963 3931 3569 4081 
Q 3175 4231 2741 4231 
Q 1884 4231 1454 3753 
Q 1025 3275 1025 2328 
Q 1025 1384 1454 906 
Q 1884 428 2741 428 
Q 3075 428 3337 486 
Q 3600 544 3809 666 
z
" transform="scale(0.015625)"/>
     <path id="DejaVuSans-50" d="M 1259 4147 
L 1259 2394 
L 2053 2394 
Q 2494 2394 2734 2622 
Q 2975 2850 2975 3272 
Q 2975 3691 2734 3919 
Q 2494 4147 2053 4147 
L 1259 4147 
z
M 628 4666 
L 2053 4666 
Q 2838 4666 3239 4311 
Q 3641 3956 3641 3272 
Q 3641 2581 3239 2228 
Q 2838 1875 2053 1875 
L 1259 1875 
L 1259 0 
L 628 0 
L 628 4666 
z
" transform="scale(0.015625)"/>
     <path id="DejaVuSans-54" d="M -19 4666 
L 3928 4666 
L 3928 4134 
L 2272 4134 
L 2272 0 
L 1638 0 
L 1638 4134 
L -19 4134 
L -19 4666 
z
" transform="scale(0.015625)"/>
     <path id="DejaVuSans-43" d="M 4122 4306 
L 4122 3641 
Q 3803 3938 3442 4084 
Q 3081 4231 2675 4231 
Q 1875 4231 1450 3742 
Q 1025 3253 1025 2328 
Q 1025 1406 1450 917 
Q 1875 428 2675 428 
Q 3081 428 3442 575 
Q 3803 722 4122 1019 
L 4122 359 
Q 3791 134 3420 21 
Q 3050 -91 2638 -91 
Q 1578 -91 968 557 
Q 359 1206 359 2328 
Q 359 3453 968 4101 
Q 1578 4750 2638 4750 
Q 3056 4750 3426 4639 
Q 3797 4528 4122 4306 
z
" transform="scale(0.015625)"/>
     <path id="DejaVuSans-73" d="M 2834 3397 
L 2834 2853 
Q 2591 2978 2328 3040 
Q 2066 3103 1784 3103 
Q 1356 3103 1142 2972 
Q 928 2841 928 2578 
Q 928 2378 1081 2264 
Q 1234 2150 1697 2047 
L 1894 2003 
Q 2506 1872 2764 1633 
Q 3022 1394 3022 966 
Q 3022 478 2636 193 
Q 2250 -91 1575 -91 
Q 1294 -91 989 -36 
Q 684 19 347 128 
L 347 722 
Q 666 556 975 473 
Q 1284 391 1588 391 
Q 1994 391 2212 530 
Q 2431 669 2431 922 
Q 2431 1156 2273 1281 
Q 2116 1406 1581 1522 
L 1381 1569 
Q 847 1681 609 1914 
Q 372 2147 372 2553 
Q 372 3047 722 3315 
Q 1072 3584 1716 3584 
Q 2034 3584 2315 3537 
Q 2597 3491 2834 3397 
z
" transform="scale(0.015625)"/>
    </defs>
    <use xlink:href="#DejaVuSans-46"/>
    <use xlink:href="#DejaVuSans-69" transform="translate(50.269531 0)"/>
    <use xlink:href="#DejaVuSans-6e" transform="translate(78.052734 0)"/>
    <use xlink:href="#DejaVuSans-47" transform="translate(141.431641 0)"/>
    <use xlink:href="#DejaVuSans-50" transform="translate(218.921875 0)"/>
    <use xlink:href="#DejaVuSans-54" transform="translate(279.224609 0)"/>
    <use xlink:href="#DejaVuSans-20" transform="translate(340.308594 0)"/>
    <use xlink:href="#DejaVuSans-53" transform="translate(372.095703 0)"/>
    <use xlink:href="#DejaVuSans-46" transform="translate(435.572266 0)"/>
    <use xlink:href="#DejaVuSans-54" transform="translate(491.341797 0)"/>
    <use xlink:href="#DejaVuSans-20" transform="translate(552.425781 0)"/>
    <use xlink:href="#DejaVuSans-43" transform="translate(584.212891 0)"/>
    <use xlink:href="#DejaVuSans-75" transform="translate(654.037109 0)"/>
    <use xlink:href="#DejaVuSans-72" transform="translate(717.416016 0)"/>
    <use xlink:href="#DejaVuSans-76" transform="translate(758.529297 0)"/>
    <use xlink:href="#DejaVuSans-65" transform="translate(817.708984 0)"/>
    <use xlink:href="#DejaVuSans-73" transform="translate(879.232422 0)"/>
   </g>
  </g>
 </g>
 <defs>
  <clipPath id="pdb014d59fe">
   <rect x="49.885" y="27.7632" width="451.008" height="235.872"/>
  </clipPath>
 </defs>
</svg>
